<svg xmlns="http://www.w3.org/2000/svg" width="16.926" height="17.126" viewBox="0 0 16.926 17.126">
  <g id="Group_163443" data-name="Group 163443" transform="translate(-115.964 -2139.785)">
    <path id="Path_13591" data-name="Path 13591" d="M16.219,0A8.57,8.57,0,0,1,22.18,2.484c3.466,3.355,1.119,7.258-2.285,7.041a5.512,5.512,0,0,1-3.572-1.9,5.807,5.807,0,0,0-3.766-2,4.115,4.115,0,0,0-2.777.858A6.1,6.1,0,0,0,7.818,9.278l-.026.071c-.023-.259-.036-.521-.036-.787A8.513,8.513,0,0,1,16.219,0" transform="translate(108.208 2139.784)" fill="#229c00"/>
    <path id="Path_13592" data-name="Path 13592" d="M16.219,0A8.513,8.513,0,0,0,7.756,8.563c0,.265.013.527.036.786l.026-.071A6.1,6.1,0,0,1,9.779,6.487a4.115,4.115,0,0,1,2.777-.858,5.808,5.808,0,0,1,3.766,2,5.512,5.512,0,0,0,3.572,1.9c3.4.217,5.751-3.686,2.285-7.041A8.569,8.569,0,0,0,16.219,0Z" transform="translate(108.208 2139.784)" fill="#229c00"/>
    <path id="Path_13593" data-name="Path 13593" d="M21.823,70.63a8.57,8.57,0,0,1-5.961-2.484c-3.466-3.355-1.119-7.258,2.285-7.041A5.511,5.511,0,0,1,21.72,63a5.807,5.807,0,0,0,3.766,2,4.115,4.115,0,0,0,2.777-.858,6.1,6.1,0,0,0,1.961-2.792l.026-.071c.023.259.036.521.036.787a8.513,8.513,0,0,1-8.463,8.563" transform="translate(102.604 2086.281)" fill="#229c00"/>
    <path id="Path_13594" data-name="Path 13594" d="M15.863,68.145a8.443,8.443,0,0,0,14.424-6.078c0-.265-.013-.528-.036-.786l-.026.071a6.1,6.1,0,0,1-1.961,2.792A4.115,4.115,0,0,1,25.486,65a5.807,5.807,0,0,1-3.766-2,5.512,5.512,0,0,0-3.572-1.9q-.137-.009-.271-.009c-3.255,0-5.387,3.785-2.014,7.049" transform="translate(102.603 2086.281)" fill="#229c00"/>
  </g>
</svg>
